<svg width="131" height="18" viewBox="0 0 131 18" fill="none" xmlns="http://www.w3.org/2000/svg">
<path d="M92.0562 13.54V6.99405H93.6V7.79051H93.6872C93.9485 7.30516 94.596 6.83228 95.5297 6.83228C96.9989 6.83228 97.8952 7.86519 97.8952 9.259V13.54H96.2767V9.68212C96.2767 8.88565 95.7663 8.35054 95.0192 8.35054C94.2349 8.35054 93.6747 8.97276 93.6747 9.79412V13.54H92.0562Z" fill="black"/>
<path d="M90.4117 6.41163C89.8267 6.41163 89.4158 6.05073 89.4158 5.46583C89.4158 4.90582 89.8267 4.53247 90.4117 4.53247C90.997 4.53247 91.4077 4.90582 91.4077 5.46583C91.4077 6.05073 90.997 6.41163 90.4117 6.41163ZM89.6026 13.5399V6.99399H91.2209V13.5399H89.6026Z" fill="black"/>
<path d="M83.1333 13.7018C81.2036 13.7018 79.8341 12.2582 79.8341 10.3044C79.8341 8.23852 81.2161 6.83228 83.1333 6.83228C85.2374 6.83228 86.3828 8.38786 86.3828 10.2297V10.7399H81.4029C81.4525 11.7355 82.1374 12.4075 83.1831 12.4075C83.9799 12.4075 84.59 12.0342 84.8142 11.499H86.3205C85.9969 12.8306 84.8266 13.7018 83.1333 13.7018ZM81.4278 9.59501H84.8391C84.7644 8.71142 84.0795 8.12651 83.1333 8.12651C82.2245 8.12651 81.5272 8.77365 81.4278 9.59501Z" fill="black"/>
<path d="M72.2762 15.9795V6.99405H73.8697V7.82785H73.9569C74.1312 7.55406 74.7287 6.83228 75.9239 6.83228C77.7542 6.83228 79.0117 8.20119 79.0117 10.2421C79.0117 12.2831 77.7667 13.7018 75.9738 13.7018C74.8159 13.7018 74.1935 13.0546 73.9818 12.6937H73.8946V15.9795H72.2762ZM75.6128 12.2333C76.6586 12.2333 77.3682 11.4244 77.3682 10.267C77.3682 9.07232 76.6586 8.30075 75.6004 8.30075C74.5297 8.30075 73.8573 9.15945 73.8573 10.267C73.8573 11.4866 74.6044 12.2333 75.6128 12.2333Z" fill="black"/>
<path d="M60.6426 13.7018C58.7127 13.7018 57.3431 12.2582 57.3431 10.3044C57.3431 8.23852 58.7251 6.83228 60.6426 6.83228C62.7466 6.83228 63.892 8.38786 63.892 10.2297V10.7399H58.9119C58.9617 11.7355 59.6464 12.4075 60.6924 12.4075C61.4891 12.4075 62.0991 12.0342 62.3232 11.499H63.8297C63.506 12.8306 62.3357 13.7018 60.6426 13.7018ZM58.9368 9.59501H62.3481C62.2734 8.71142 61.5887 8.12651 60.6426 8.12651C59.7336 8.12651 59.0364 8.77365 58.9368 9.59501Z" fill="black"/>
<path d="M49.897 13.5399V12.0086L54.4288 6.10234V6.01226H50.0589V4.53247H56.4954V6.05087L51.9636 11.9572V12.0601H56.5203V13.5399H49.897Z" fill="black"/>
<path d="M43.2324 13.54V6.99405H44.7761V7.79051H44.8633C45.1248 7.30516 45.7721 6.83228 46.706 6.83228C48.1749 6.83228 49.0715 7.86519 49.0715 9.259V13.54H47.4529V9.68212C47.4529 8.88565 46.9424 8.35054 46.1954 8.35054C45.4112 8.35054 44.8508 8.97276 44.8508 9.79412V13.54H43.2324Z" fill="black"/>
<path d="M39.1596 13.7018C37.2299 13.7018 35.8604 12.2582 35.8604 10.3044C35.8604 8.23852 37.2423 6.83228 39.1596 6.83228C41.2636 6.83228 42.409 8.38786 42.409 10.2297V10.7399H37.4291C37.4789 11.7355 38.1636 12.4075 39.2094 12.4075C40.0063 12.4075 40.6163 12.0342 40.8404 11.499H42.3469C42.0232 12.8306 40.8529 13.7018 39.1596 13.7018ZM37.454 9.59501H40.8653C40.7906 8.71142 40.1058 8.12651 39.1596 8.12651C38.2508 8.12651 37.5536 8.77365 37.454 9.59501Z" fill="black"/>
<path d="M28.3025 15.9702V6.97118H29.896V7.82785H29.9831C30.1575 7.55406 30.7552 6.83228 31.9504 6.83228C33.7805 6.83228 35.0379 8.20119 35.0379 10.2421C35.0379 12.2831 33.7929 13.7018 32 13.7018C30.8423 13.7018 30.2197 13.0546 30.008 12.6937H29.9209V15.9702H28.3025ZM31.6391 12.2333C32.6849 12.2333 33.3944 11.4244 33.3944 10.267C33.3944 9.07232 32.6849 8.30075 31.6266 8.30075C30.5559 8.30075 29.8835 9.15945 29.8835 10.267C29.8835 11.4866 30.6307 12.2333 31.6391 12.2333Z" fill="black"/>
<path d="M22.709 13.7018C19.9738 13.7018 17.9612 11.7029 17.9612 9.02049C17.9612 6.36384 19.9868 4.33911 22.7219 4.33911C25.4571 4.33911 27.4828 6.38964 27.4828 9.02049C27.4828 11.6771 25.4443 13.7018 22.709 13.7018ZM22.7219 12.064C24.4508 12.064 25.6893 10.7744 25.6893 9.02049C25.6893 7.29238 24.4508 5.97694 22.7219 5.97694C20.9803 5.97694 19.7416 7.29238 19.7416 9.02049C19.7416 10.7744 20.9803 12.064 22.7219 12.064Z" fill="black"/>
<path d="M88.7761 4.49438H87.2059V13.54H88.7761V4.49438Z" fill="black"/>
<path d="M64.7151 15.9795V6.99406H66.3088V7.82787H66.3959C66.5701 7.55408 67.1678 6.83228 68.363 6.83228C70.1931 6.83228 71.4505 8.20121 71.4505 10.2421C71.4505 12.2831 70.2055 13.7018 68.4128 13.7018C67.2549 13.7018 66.6323 13.0547 66.4206 12.6938H66.3337V15.9795H64.7151ZM68.0517 12.2333C69.0975 12.2333 69.8072 11.4244 69.8072 10.267C69.8072 9.07234 69.0975 8.30077 68.0392 8.30077C66.9685 8.30077 66.2963 9.15945 66.2963 10.267C66.2963 11.4866 67.0433 12.2333 68.0517 12.2333Z" fill="black"/>
<path d="M2.01135 15.9925C3.55469 13.3233 4.86612 11.122 6.53296 8.10502C7.12175 7.08695 8.13913 6.45435 9.39507 6.45435H11.3685L5.85741 15.9925H2.01135Z" fill="#2E99FF"/>
<path d="M2.02893 2.09741H13.8706L11.8472 5.62375H2.02893V2.09741Z" fill="#4F56FA"/>
<path d="M7.96026 13.7965C8.40557 13.0096 9.12135 12.5207 10.1239 12.5207L13.8726 12.5105V15.9929H6.68982C7.13953 15.222 7.53003 14.5567 7.96026 13.7965Z" fill="#09C2FF"/>
<path d="M109.02 12.6477C108.617 12.6477 108.265 12.5412 107.962 12.3281C107.659 12.1151 107.423 11.8178 107.252 11.4364C107.084 11.055 107 10.6108 107 10.1037C107 9.59872 107.084 9.15661 107.252 8.77734C107.423 8.39595 107.661 8.09979 107.965 7.88885C108.27 7.67578 108.625 7.56925 109.029 7.56925C109.328 7.56925 109.576 7.62251 109.774 7.72905C109.972 7.83345 110.131 7.96342 110.25 8.11896C110.37 8.2745 110.462 8.42578 110.528 8.5728H110.58V6H111.152V12.5455H110.596V11.6346H110.528C110.462 11.7837 110.369 11.9371 110.247 12.0948C110.126 12.2504 109.965 12.3814 109.765 12.4879C109.566 12.5945 109.318 12.6477 109.02 12.6477ZM109.087 12.1268C109.404 12.1268 109.675 12.0405 109.899 11.8679C110.123 11.6932 110.293 11.4535 110.41 11.1488C110.529 10.842 110.589 10.4904 110.589 10.0941C110.589 9.70206 110.531 9.35582 110.413 9.0554C110.296 8.75284 110.126 8.51634 109.902 8.34588C109.678 8.1733 109.407 8.087 109.087 8.087C108.759 8.087 108.482 8.17649 108.256 8.35547C108.032 8.53232 107.862 8.77202 107.745 9.07457C107.63 9.37713 107.572 9.71697 107.572 10.0941C107.572 10.4755 107.631 10.8196 107.748 11.1264C107.865 11.4332 108.036 11.6772 108.259 11.8583C108.485 12.0373 108.761 12.1268 109.087 12.1268Z" fill="black"/>
<path d="M114.68 12.6477C114.256 12.6477 113.881 12.5401 113.555 12.3249C113.231 12.1097 112.978 11.8125 112.794 11.4332C112.611 11.0518 112.52 10.6119 112.52 10.1133C112.52 9.61044 112.611 9.16832 112.794 8.78693C112.978 8.40341 113.231 8.10511 113.555 7.89205C113.881 7.67685 114.256 7.56925 114.68 7.56925C115.104 7.56925 115.478 7.67685 115.802 7.89205C116.126 8.10724 116.379 8.40554 116.562 8.78693C116.748 9.16832 116.841 9.61044 116.841 10.1133C116.841 10.6119 116.749 11.0518 116.566 11.4332C116.382 11.8125 116.128 12.1097 115.802 12.3249C115.478 12.5401 115.104 12.6477 114.68 12.6477ZM114.68 12.1268C115.021 12.1268 115.31 12.0352 115.546 11.8519C115.783 11.6687 115.962 11.4247 116.083 11.12C116.207 10.8153 116.268 10.4798 116.268 10.1133C116.268 9.7468 116.207 9.41016 116.083 9.10334C115.962 8.79652 115.783 8.55043 115.546 8.36506C115.31 8.17969 115.021 8.087 114.68 8.087C114.341 8.087 114.053 8.17969 113.814 8.36506C113.577 8.55043 113.397 8.79652 113.274 9.10334C113.152 9.41016 113.092 9.7468 113.092 10.1133C113.092 10.4798 113.152 10.8153 113.274 11.12C113.397 11.4247 113.577 11.6687 113.814 11.8519C114.05 12.0352 114.339 12.1268 114.68 12.1268Z" fill="black"/>
<path d="M120.007 12.6477C119.568 12.6477 119.186 12.538 118.86 12.3185C118.536 12.0991 118.284 11.7987 118.105 11.4173C117.926 11.0359 117.837 10.6012 117.837 10.1133C117.837 9.62109 117.927 9.18324 118.109 8.79972C118.292 8.41619 118.545 8.11577 118.869 7.89844C119.193 7.67898 119.569 7.56925 119.997 7.56925C120.326 7.56925 120.623 7.63317 120.889 7.76101C121.155 7.88672 121.375 8.06463 121.547 8.29474C121.722 8.52273 121.832 8.78906 121.877 9.09375H121.301C121.242 8.81676 121.098 8.58026 120.87 8.38423C120.644 8.18608 120.356 8.087 120.007 8.087C119.694 8.087 119.417 8.17223 119.176 8.34268C118.935 8.51101 118.747 8.74645 118.61 9.04901C118.476 9.34943 118.409 9.6978 118.409 10.0941C118.409 10.4925 118.475 10.8452 118.607 11.152C118.739 11.4567 118.925 11.6953 119.163 11.8679C119.404 12.0405 119.685 12.1268 120.007 12.1268C120.224 12.1268 120.422 12.0863 120.601 12.0053C120.783 11.9222 120.934 11.805 121.055 11.6538C121.179 11.5025 121.262 11.3224 121.305 11.1136H121.88C121.837 11.4098 121.732 11.674 121.563 11.9062C121.397 12.1364 121.181 12.3175 120.915 12.4496C120.65 12.5817 120.348 12.6477 120.007 12.6477Z" fill="black"/>
<path d="M126.397 8.71342L125.877 8.86044C125.825 8.71342 125.753 8.58026 125.659 8.46094C125.565 8.34162 125.443 8.2468 125.292 8.17649C125.142 8.10618 124.957 8.07102 124.736 8.07102C124.403 8.07102 124.13 8.14986 123.917 8.30753C123.704 8.4652 123.598 8.66868 123.598 8.91797C123.598 9.12891 123.67 9.30043 123.815 9.43253C123.962 9.5625 124.188 9.66584 124.493 9.74254L125.234 9.92472C125.645 10.0249 125.953 10.1836 126.158 10.4009C126.364 10.6183 126.468 10.891 126.468 11.2191C126.468 11.4961 126.391 11.7422 126.238 11.9574C126.084 12.1726 125.87 12.342 125.595 12.4656C125.323 12.587 125.006 12.6477 124.646 12.6477C124.167 12.6477 123.771 12.5401 123.46 12.3249C123.149 12.1076 122.95 11.7944 122.863 11.3853L123.409 11.2511C123.479 11.543 123.617 11.7635 123.821 11.9126C124.028 12.0618 124.3 12.1364 124.636 12.1364C125.014 12.1364 125.315 12.0522 125.541 11.8839C125.767 11.7134 125.88 11.5004 125.88 11.2447C125.88 11.0465 125.814 10.8803 125.682 10.7461C125.549 10.6097 125.349 10.5096 125.081 10.4457L124.278 10.2539C123.852 10.1516 123.537 9.9897 123.332 9.76811C123.128 9.54652 123.026 9.27166 123.026 8.94354C123.026 8.67294 123.099 8.43537 123.246 8.23082C123.393 8.02415 123.596 7.86222 123.853 7.74503C124.111 7.62784 124.405 7.56925 124.736 7.56925C125.185 7.56925 125.544 7.67152 125.813 7.87607C126.083 8.07848 126.278 8.3576 126.397 8.71342Z" fill="black"/>
<path d="M102.2 4L102.2 15" stroke="black" stroke-width="0.4"/>
</svg>
